<svg width="549" height="308" viewBox="0 0 549 308" fill="none" xmlns="http://www.w3.org/2000/svg">
<g filter="url(#filter0_bd_9_320)">
<rect x="90" y="80" width="349" height="108" rx="15" fill="white" fill-opacity="0.8"/>
</g>
<g filter="url(#filter1_bd_9_320)">
<rect x="106" y="96" width="76" height="76" rx="10" fill="white" fill-opacity="0.6"/>
</g>
<path d="M138 117V115C138 114.47 138.211 113.961 138.586 113.586C138.961 113.211 139.47 113 140 113H148C148.53 113 149.039 113.211 149.414 113.586C149.789 113.961 150 114.47 150 115V117H156C156.53 117 157.039 117.211 157.414 117.586C157.789 117.961 158 118.47 158 119V151C158 151.53 157.789 152.039 157.414 152.414C157.039 152.789 156.53 153 156 153H132C131.47 153 130.961 152.789 130.586 152.414C130.211 152.039 130 151.53 130 151V119C130 118.47 130.211 117.961 130.586 117.586C130.961 117.211 131.47 117 132 117H138ZM146 133V123L136 137H142V147L152 133H146Z" fill="#76DE84"/>
<path d="M206.639 111.012H212.572C215.325 111.012 217.312 111.413 218.533 112.215C219.764 113.017 220.379 114.284 220.379 116.016C220.379 117.182 220.078 118.153 219.477 118.928C218.875 119.702 218.009 120.19 216.879 120.391V120.527C218.283 120.792 219.312 121.316 219.969 122.1C220.634 122.874 220.967 123.927 220.967 125.258C220.967 127.053 220.338 128.462 219.08 129.482C217.831 130.494 216.09 131 213.857 131H206.639V111.012ZM209.906 119.27H213.051C214.418 119.27 215.416 119.055 216.045 118.627C216.674 118.189 216.988 117.451 216.988 116.412C216.988 115.473 216.646 114.794 215.963 114.375C215.288 113.956 214.213 113.746 212.736 113.746H209.906V119.27ZM209.906 121.922V128.252H213.379C214.746 128.252 215.776 127.992 216.469 127.473C217.171 126.944 217.521 126.115 217.521 124.984C217.521 123.945 217.166 123.175 216.455 122.674C215.744 122.173 214.664 121.922 213.215 121.922H209.906ZM234.242 131L233.6 128.895H233.49C232.761 129.815 232.027 130.444 231.289 130.781C230.551 131.109 229.603 131.273 228.445 131.273C226.96 131.273 225.798 130.872 224.959 130.07C224.13 129.268 223.715 128.133 223.715 126.666C223.715 125.107 224.294 123.932 225.451 123.139C226.609 122.346 228.372 121.913 230.742 121.84L233.354 121.758V120.951C233.354 119.985 233.126 119.265 232.67 118.791C232.223 118.308 231.526 118.066 230.578 118.066C229.803 118.066 229.061 118.18 228.35 118.408C227.639 118.636 226.955 118.905 226.299 119.215L225.26 116.918C226.08 116.49 226.978 116.166 227.953 115.947C228.928 115.719 229.849 115.605 230.715 115.605C232.638 115.605 234.087 116.025 235.062 116.863C236.047 117.702 236.539 119.019 236.539 120.814V131H234.242ZM229.457 128.812C230.624 128.812 231.558 128.489 232.26 127.842C232.971 127.186 233.326 126.27 233.326 125.094V123.781L231.385 123.863C229.872 123.918 228.769 124.173 228.076 124.629C227.393 125.076 227.051 125.764 227.051 126.693C227.051 127.368 227.251 127.892 227.652 128.266C228.053 128.63 228.655 128.812 229.457 128.812ZM246.656 128.676C247.44 128.676 248.224 128.553 249.008 128.307V130.727C248.652 130.882 248.192 131.009 247.627 131.109C247.071 131.219 246.492 131.273 245.891 131.273C242.846 131.273 241.324 129.669 241.324 126.461V118.312H239.26V116.891L241.475 115.715L242.568 112.516H244.551V115.879H248.857V118.312H244.551V126.406C244.551 127.181 244.742 127.755 245.125 128.129C245.517 128.493 246.027 128.676 246.656 128.676ZM257.676 128.676C258.46 128.676 259.243 128.553 260.027 128.307V130.727C259.672 130.882 259.212 131.009 258.646 131.109C258.09 131.219 257.512 131.273 256.91 131.273C253.866 131.273 252.344 129.669 252.344 126.461V118.312H250.279V116.891L252.494 115.715L253.588 112.516H255.57V115.879H259.877V118.312H255.57V126.406C255.57 127.181 255.762 127.755 256.145 128.129C256.536 128.493 257.047 128.676 257.676 128.676ZM269.666 131.273C267.314 131.273 265.473 130.59 264.143 129.223C262.821 127.846 262.16 125.955 262.16 123.549C262.16 121.079 262.775 119.137 264.006 117.725C265.236 116.312 266.927 115.605 269.078 115.605C271.074 115.605 272.651 116.212 273.809 117.424C274.966 118.636 275.545 120.304 275.545 122.428V124.164H265.469C265.514 125.632 265.911 126.762 266.658 127.555C267.406 128.339 268.458 128.73 269.816 128.73C270.71 128.73 271.539 128.648 272.305 128.484C273.079 128.311 273.909 128.029 274.793 127.637V130.248C274.009 130.622 273.216 130.886 272.414 131.041C271.612 131.196 270.696 131.273 269.666 131.273ZM269.078 118.039C268.057 118.039 267.237 118.363 266.617 119.01C266.007 119.657 265.642 120.6 265.523 121.84H272.387C272.368 120.591 272.068 119.648 271.484 119.01C270.901 118.363 270.099 118.039 269.078 118.039ZM286.865 115.605C287.512 115.605 288.046 115.651 288.465 115.742L288.15 118.736C287.695 118.627 287.221 118.572 286.729 118.572C285.443 118.572 284.4 118.992 283.598 119.83C282.805 120.669 282.408 121.758 282.408 123.098V131H279.195V115.879H281.711L282.135 118.545H282.299C282.8 117.643 283.452 116.927 284.254 116.398C285.065 115.87 285.936 115.605 286.865 115.605ZM288.984 115.879H292.484L295.561 124.451C296.025 125.673 296.335 126.821 296.49 127.896H296.6C296.682 127.395 296.832 126.789 297.051 126.078C297.27 125.358 298.427 121.958 300.523 115.879H303.996L297.529 133.01C296.354 136.154 294.394 137.727 291.65 137.727C290.939 137.727 290.247 137.649 289.572 137.494V134.951C290.055 135.061 290.607 135.115 291.227 135.115C292.776 135.115 293.865 134.217 294.494 132.422L295.055 131L288.984 115.879Z" fill="#444444"/>
<path d="M214.797 157.18C214.797 159.065 214.273 160.508 213.227 161.508C212.18 162.503 210.672 163 208.703 163H205.508V151.578H209.039C210.857 151.578 212.271 152.068 213.281 153.047C214.292 154.026 214.797 155.404 214.797 157.18ZM212.828 157.242C212.828 154.508 211.549 153.141 208.992 153.141H207.375V161.43H208.703C211.453 161.43 212.828 160.034 212.828 157.242ZM223.156 163L222.898 161.867H222.805C222.549 162.268 222.185 162.583 221.711 162.812C221.242 163.042 220.706 163.156 220.102 163.156C219.055 163.156 218.273 162.896 217.758 162.375C217.242 161.854 216.984 161.065 216.984 160.008V154.359H218.836V159.688C218.836 160.349 218.971 160.846 219.242 161.18C219.513 161.508 219.938 161.672 220.516 161.672C221.286 161.672 221.852 161.443 222.211 160.984C222.576 160.521 222.758 159.747 222.758 158.664V154.359H224.602V163H223.156ZM231.602 154.203C231.971 154.203 232.276 154.229 232.516 154.281L232.336 155.992C232.076 155.93 231.805 155.898 231.523 155.898C230.789 155.898 230.193 156.138 229.734 156.617C229.281 157.096 229.055 157.719 229.055 158.484V163H227.219V154.359H228.656L228.898 155.883H228.992C229.279 155.367 229.651 154.958 230.109 154.656C230.573 154.354 231.07 154.203 231.602 154.203ZM239.531 163L239.164 161.797H239.102C238.685 162.323 238.266 162.682 237.844 162.875C237.422 163.062 236.88 163.156 236.219 163.156C235.37 163.156 234.706 162.927 234.227 162.469C233.753 162.01 233.516 161.362 233.516 160.523C233.516 159.633 233.846 158.961 234.508 158.508C235.169 158.055 236.177 157.807 237.531 157.766L239.023 157.719V157.258C239.023 156.706 238.893 156.294 238.633 156.023C238.378 155.747 237.979 155.609 237.438 155.609C236.995 155.609 236.57 155.674 236.164 155.805C235.758 155.935 235.367 156.089 234.992 156.266L234.398 154.953C234.867 154.708 235.38 154.523 235.938 154.398C236.495 154.268 237.021 154.203 237.516 154.203C238.615 154.203 239.443 154.443 240 154.922C240.562 155.401 240.844 156.154 240.844 157.18V163H239.531ZM236.797 161.75C237.464 161.75 237.997 161.565 238.398 161.195C238.805 160.82 239.008 160.297 239.008 159.625V158.875L237.898 158.922C237.034 158.953 236.404 159.099 236.008 159.359C235.617 159.615 235.422 160.008 235.422 160.539C235.422 160.924 235.536 161.224 235.766 161.438C235.995 161.646 236.339 161.75 236.797 161.75ZM246.625 161.672C247.073 161.672 247.521 161.602 247.969 161.461V162.844C247.766 162.932 247.503 163.005 247.18 163.062C246.862 163.125 246.531 163.156 246.188 163.156C244.448 163.156 243.578 162.24 243.578 160.406V155.75H242.398V154.938L243.664 154.266L244.289 152.438H245.422V154.359H247.883V155.75H245.422V160.375C245.422 160.818 245.531 161.146 245.75 161.359C245.974 161.568 246.266 161.672 246.625 161.672ZM251.539 163H249.703V154.359H251.539V163ZM249.594 152.07C249.594 151.742 249.682 151.49 249.859 151.312C250.042 151.135 250.299 151.047 250.633 151.047C250.956 151.047 251.206 151.135 251.383 151.312C251.565 151.49 251.656 151.742 251.656 152.07C251.656 152.383 251.565 152.63 251.383 152.812C251.206 152.99 250.956 153.078 250.633 153.078C250.299 153.078 250.042 152.99 249.859 152.812C249.682 152.63 249.594 152.383 249.594 152.07ZM261.836 158.664C261.836 160.076 261.474 161.177 260.75 161.969C260.026 162.76 259.018 163.156 257.727 163.156C256.919 163.156 256.206 162.974 255.586 162.609C254.966 162.245 254.49 161.721 254.156 161.039C253.823 160.357 253.656 159.565 253.656 158.664C253.656 157.263 254.016 156.169 254.734 155.383C255.453 154.596 256.466 154.203 257.773 154.203C259.023 154.203 260.013 154.607 260.742 155.414C261.471 156.216 261.836 157.299 261.836 158.664ZM255.547 158.664C255.547 160.659 256.284 161.656 257.758 161.656C259.216 161.656 259.945 160.659 259.945 158.664C259.945 156.69 259.211 155.703 257.742 155.703C256.971 155.703 256.411 155.958 256.062 156.469C255.719 156.979 255.547 157.711 255.547 158.664ZM271.555 163H269.711V157.688C269.711 157.021 269.576 156.523 269.305 156.195C269.039 155.867 268.615 155.703 268.031 155.703C267.255 155.703 266.688 155.932 266.328 156.391C265.969 156.849 265.789 157.617 265.789 158.695V163H263.953V154.359H265.391L265.648 155.492H265.742C266.003 155.081 266.372 154.763 266.852 154.539C267.331 154.315 267.862 154.203 268.445 154.203C270.518 154.203 271.555 155.258 271.555 157.367V163ZM283.047 163H281.211V155.625C281.211 154.745 281.232 154.047 281.273 153.531C281.154 153.656 281.005 153.794 280.828 153.945C280.656 154.096 280.073 154.576 279.078 155.383L278.156 154.219L281.516 151.578H283.047V163ZM294.945 160.508H293.406V163H291.617V160.508H286.398V159.094L291.617 151.547H293.406V158.984H294.945V160.508ZM291.617 158.984V156.117C291.617 155.096 291.643 154.26 291.695 153.609H291.633C291.487 153.953 291.258 154.37 290.945 154.859L288.109 158.984H291.617ZM303.617 163.156C302.539 163.156 301.698 162.766 301.094 161.984C300.49 161.203 300.188 160.107 300.188 158.695C300.188 157.279 300.492 156.177 301.102 155.391C301.716 154.599 302.565 154.203 303.648 154.203C304.784 154.203 305.648 154.622 306.242 155.461H306.336C306.247 154.841 306.203 154.352 306.203 153.992V150.844H308.047V163H306.609L306.289 161.867H306.203C305.615 162.727 304.753 163.156 303.617 163.156ZM304.109 161.672C304.865 161.672 305.414 161.461 305.758 161.039C306.102 160.612 306.279 159.922 306.289 158.969V158.711C306.289 157.622 306.112 156.849 305.758 156.391C305.404 155.932 304.849 155.703 304.094 155.703C303.448 155.703 302.951 155.966 302.602 156.492C302.253 157.013 302.078 157.758 302.078 158.727C302.078 159.685 302.247 160.417 302.586 160.922C302.924 161.422 303.432 161.672 304.109 161.672ZM316.078 163L315.711 161.797H315.648C315.232 162.323 314.812 162.682 314.391 162.875C313.969 163.062 313.427 163.156 312.766 163.156C311.917 163.156 311.253 162.927 310.773 162.469C310.299 162.01 310.062 161.362 310.062 160.523C310.062 159.633 310.393 158.961 311.055 158.508C311.716 158.055 312.724 157.807 314.078 157.766L315.57 157.719V157.258C315.57 156.706 315.44 156.294 315.18 156.023C314.924 155.747 314.526 155.609 313.984 155.609C313.542 155.609 313.117 155.674 312.711 155.805C312.305 155.935 311.914 156.089 311.539 156.266L310.945 154.953C311.414 154.708 311.927 154.523 312.484 154.398C313.042 154.268 313.568 154.203 314.062 154.203C315.161 154.203 315.99 154.443 316.547 154.922C317.109 155.401 317.391 156.154 317.391 157.18V163H316.078ZM313.344 161.75C314.01 161.75 314.544 161.565 314.945 161.195C315.352 160.82 315.555 160.297 315.555 159.625V158.875L314.445 158.922C313.581 158.953 312.951 159.099 312.555 159.359C312.164 159.615 311.969 160.008 311.969 160.539C311.969 160.924 312.083 161.224 312.312 161.438C312.542 161.646 312.885 161.75 313.344 161.75ZM318.641 154.359H320.641L322.398 159.258C322.664 159.956 322.841 160.612 322.93 161.227H322.992C323.039 160.94 323.125 160.594 323.25 160.188C323.375 159.776 324.036 157.833 325.234 154.359H327.219L323.523 164.148C322.852 165.945 321.732 166.844 320.164 166.844C319.758 166.844 319.362 166.799 318.977 166.711V165.258C319.253 165.32 319.568 165.352 319.922 165.352C320.807 165.352 321.43 164.839 321.789 163.812L322.109 163L318.641 154.359ZM334.336 160.539C334.336 161.383 334.029 162.031 333.414 162.484C332.799 162.932 331.919 163.156 330.773 163.156C329.622 163.156 328.698 162.982 328 162.633V161.047C329.016 161.516 329.961 161.75 330.836 161.75C331.966 161.75 332.531 161.409 332.531 160.727C332.531 160.508 332.469 160.326 332.344 160.18C332.219 160.034 332.013 159.883 331.727 159.727C331.44 159.57 331.042 159.393 330.531 159.195C329.536 158.81 328.862 158.424 328.508 158.039C328.159 157.654 327.984 157.154 327.984 156.539C327.984 155.799 328.281 155.227 328.875 154.82C329.474 154.409 330.286 154.203 331.312 154.203C332.328 154.203 333.289 154.409 334.195 154.82L333.602 156.203C332.669 155.818 331.885 155.625 331.25 155.625C330.281 155.625 329.797 155.901 329.797 156.453C329.797 156.724 329.922 156.953 330.172 157.141C330.427 157.328 330.979 157.586 331.828 157.914C332.542 158.19 333.06 158.443 333.383 158.672C333.706 158.901 333.945 159.167 334.102 159.469C334.258 159.766 334.336 160.122 334.336 160.539Z" fill="#888888"/>
<defs>
<filter id="filter0_bd_9_320" x="0" y="0" width="549" height="308" filterUnits="userSpaceOnUse" color-interpolation-filters="sRGB">
<feFlood flood-opacity="0" result="BackgroundImageFix"/>
<feGaussianBlur in="BackgroundImage" stdDeviation="25"/>
<feComposite in2="SourceAlpha" operator="in" result="effect1_backgroundBlur_9_320"/>
<feColorMatrix in="SourceAlpha" type="matrix" values="0 0 0 0 0 0 0 0 0 0 0 0 0 0 0 0 0 0 127 0" result="hardAlpha"/>
<feOffset dx="10" dy="20"/>
<feGaussianBlur stdDeviation="50"/>
<feColorMatrix type="matrix" values="0 0 0 0 0.533333 0 0 0 0 0.533333 0 0 0 0 0.533333 0 0 0 0.2 0"/>
<feBlend mode="normal" in2="effect1_backgroundBlur_9_320" result="effect2_dropShadow_9_320"/>
<feBlend mode="normal" in="SourceGraphic" in2="effect2_dropShadow_9_320" result="shape"/>
</filter>
<filter id="filter1_bd_9_320" x="16" y="16" width="276" height="276" filterUnits="userSpaceOnUse" color-interpolation-filters="sRGB">
<feFlood flood-opacity="0" result="BackgroundImageFix"/>
<feGaussianBlur in="BackgroundImage" stdDeviation="25"/>
<feComposite in2="SourceAlpha" operator="in" result="effect1_backgroundBlur_9_320"/>
<feColorMatrix in="SourceAlpha" type="matrix" values="0 0 0 0 0 0 0 0 0 0 0 0 0 0 0 0 0 0 127 0" result="hardAlpha"/>
<feOffset dx="10" dy="20"/>
<feGaussianBlur stdDeviation="50"/>
<feColorMatrix type="matrix" values="0 0 0 0 0.533333 0 0 0 0 0.533333 0 0 0 0 0.533333 0 0 0 0.2 0"/>
<feBlend mode="normal" in2="effect1_backgroundBlur_9_320" result="effect2_dropShadow_9_320"/>
<feBlend mode="normal" in="SourceGraphic" in2="effect2_dropShadow_9_320" result="shape"/>
</filter>
</defs>
</svg>
