<svg width="22" height="19" viewBox="0 0 22 19" fill="none" xmlns="http://www.w3.org/2000/svg">
<path d="M12.7081 19C12.4803 18.3048 12.3665 17.7254 12.3665 17.2619C12.3665 16.8448 12.4348 16.2886 12.5714 15.5934C15.6232 15.5934 17.1491 13.9944 17.1491 10.7963C17.1491 9.63764 16.5569 8.98876 15.3727 8.84972C13.6418 8.71067 12.7764 7.57514 12.7764 5.44312C12.7764 3.82093 13.1636 2.56952 13.9379 1.68891C14.6667 0.854637 16.0104 0.437503 17.9689 0.437503C20.6563 0.437504 22 2.29144 22 5.9993C22 9.70716 21.2712 12.7893 19.8137 15.2458C18.3561 17.7486 15.9876 19 12.7081 19ZM0.341618 19C0.113874 18.3048 1.11427e-07 17.7254 1.51946e-07 17.2619C1.88413e-07 16.8448 0.0683253 16.2886 0.204974 15.5934C3.25673 15.5934 4.78261 13.9944 4.78261 10.7963C4.78261 9.63764 4.19048 8.98876 3.00621 8.84972C1.27537 8.71067 0.409942 7.57514 0.409942 5.44312C0.409942 3.82093 0.797105 2.56952 1.57143 1.68891C2.30021 0.854635 3.6439 0.437502 5.60249 0.437502C8.28986 0.437503 9.63354 2.29143 9.63354 5.9993C9.63354 9.70716 8.90476 12.7893 7.44721 15.2458C5.98965 17.7486 3.62112 19 0.341618 19Z" fill="white"/>
</svg>
