<svg width="28" height="40" viewBox="0 0 28 40" fill="none" xmlns="http://www.w3.org/2000/svg">
<path d="M8 4V2C8 1.46957 8.21071 0.960859 8.58579 0.585786C8.96086 0.210714 9.46957 0 10 0H18C18.5304 0 19.0391 0.210714 19.4142 0.585786C19.7893 0.960859 20 1.46957 20 2V4H26C26.5304 4 27.0391 4.21071 27.4142 4.58579C27.7893 4.96086 28 5.46957 28 6V38C28 38.5304 27.7893 39.0391 27.4142 39.4142C27.0391 39.7893 26.5304 40 26 40H2C1.46957 40 0.96086 39.7893 0.585787 39.4142C0.210714 39.0391 0 38.5304 0 38V6C0 5.46957 0.210714 4.96086 0.585787 4.58579C0.96086 4.21071 1.46957 4 2 4H8ZM16 20V10L6 24H12V34L22 20H16Z" fill="#76DE84"/>
</svg>
