<svg width="28" height="28" viewBox="0 0 28 28" fill="none" xmlns="http://www.w3.org/2000/svg">
<path d="M24.4998 22.1667H26.8332V24.5H1.1665V22.1667H3.49984V4.66667C3.49984 4.35725 3.62275 4.0605 3.84155 3.84171C4.06034 3.62292 4.35708 3.5 4.6665 3.5H16.3332C16.6426 3.5 16.9393 3.62292 17.1581 3.84171C17.3769 4.0605 17.4998 4.35725 17.4998 4.66667V22.1667H19.8332V10.5H23.3332C23.6426 10.5 23.9393 10.6229 24.1581 10.8417C24.3769 11.0605 24.4998 11.3572 24.4998 11.6667V22.1667ZM8.1665 12.8333V15.1667H12.8332V12.8333H8.1665ZM8.1665 8.16667V10.5H12.8332V8.16667H8.1665Z" fill="#FF7132"/>
</svg>
