<svg width="28" height="28" viewBox="0 0 28 28" fill="none" xmlns="http://www.w3.org/2000/svg">
<path d="M2.33366 22.1667V9.33333H1.16699V7H4.66699V4.66667C4.66699 4.35725 4.78991 4.0605 5.0087 3.84171C5.22749 3.62292 5.52424 3.5 5.83366 3.5H22.167C22.4764 3.5 22.7732 3.62292 22.992 3.84171C23.2107 4.0605 23.3337 4.35725 23.3337 4.66667V7H26.8337V9.33333H25.667V22.1667H26.8337V24.5H1.16699V22.1667H2.33366ZM15.167 22.1667V14H12.8337V22.1667H15.167ZM9.33366 22.1667V14H7.00033V22.1667H9.33366ZM21.0003 22.1667V14H18.667V22.1667H21.0003ZM7.00033 5.83333V7H21.0003V5.83333H7.00033Z" fill="#F7D16D"/>
</svg>
