<svg width="48" height="48" viewBox="0 0 48 48" fill="none" xmlns="http://www.w3.org/2000/svg">
<path d="M18 8V6C18 5.46957 18.2107 4.96086 18.5858 4.58579C18.9609 4.21071 19.4696 4 20 4H28C28.5304 4 29.0391 4.21071 29.4142 4.58579C29.7893 4.96086 30 5.46957 30 6V8H36C36.5304 8 37.0391 8.21071 37.4142 8.58579C37.7893 8.96086 38 9.46957 38 10V42C38 42.5304 37.7893 43.0391 37.4142 43.4142C37.0391 43.7893 36.5304 44 36 44H12C11.4696 44 10.9609 43.7893 10.5858 43.4142C10.2107 43.0391 10 42.5304 10 42V10C10 9.46957 10.2107 8.96086 10.5858 8.58579C10.9609 8.21071 11.4696 8 12 8H18ZM26 24V14L16 28H22V38L32 24H26Z" fill="#76DE84"/>
</svg>
