<svg width="24" height="24" viewBox="0 0 24 24" fill="none" xmlns="http://www.w3.org/2000/svg">
<g clip-path="url(#clip0_9_343)">
<path d="M20 18.666L20.4 19.199C20.4557 19.2733 20.4896 19.3616 20.498 19.4541C20.5063 19.5466 20.4887 19.6396 20.4472 19.7226C20.4057 19.8057 20.3419 19.8755 20.2629 19.9243C20.1839 19.9732 20.0929 19.999 20 19.999H4C3.90714 19.999 3.81612 19.9732 3.73713 19.9243C3.65815 19.8755 3.59431 19.8057 3.55279 19.7226C3.51126 19.6396 3.49368 19.5466 3.50202 19.4541C3.51036 19.3616 3.54429 19.2733 3.6 19.199L4 18.666V9.99902C4 7.87729 4.84286 5.84246 6.34315 4.34217C7.84344 2.84188 9.87827 1.99902 12 1.99902C14.1217 1.99902 16.1566 2.84188 17.6569 4.34217C19.1571 5.84246 20 7.87729 20 9.99902V18.666ZM9.5 20.999H14.5C14.5 21.6621 14.2366 22.2979 13.7678 22.7668C13.2989 23.2356 12.663 23.499 12 23.499C11.337 23.499 10.7011 23.2356 10.2322 22.7668C9.76339 22.2979 9.5 21.6621 9.5 20.999Z" fill="#FF7132"/>
</g>
<defs>
<clipPath id="clip0_9_343">
<rect width="24" height="24" fill="white" transform="translate(0 -0.000976562)"/>
</clipPath>
</defs>
</svg>
