<svg width="28" height="28" viewBox="0 0 28 28" fill="none" xmlns="http://www.w3.org/2000/svg">
<path fill-rule="evenodd" clip-rule="evenodd" d="M13.4665 20C11.9201 20 10.6665 21.2536 10.6665 22.8V27.0667C10.6665 27.5821 11.0844 28 11.5998 28H16.3998C16.9153 28 17.3332 27.5821 17.3332 27.0667V22.8C17.3332 21.2536 16.0796 20 14.5332 20H13.4665Z" fill="#76DE84"/>
<path fill-rule="evenodd" clip-rule="evenodd" d="M18.6667 27.1765V22.7843C18.6667 20.5102 16.5878 18.6667 14.3137 18.6667H13.6863C11.4122 18.6667 9.33333 20.5102 9.33333 22.7843V27.1765C9.33333 27.4652 9.38287 27.7424 9.47391 28H7.41177C5.13766 28 3.29413 26.1565 3.29413 23.8824V11.2855L1.36584 12.9727C1.02355 13.2722 0.503274 13.2375 0.203771 12.8952C-0.0957311 12.5529 -0.0610462 12.0327 0.281243 11.7332L13.4577 0.20376C13.7682 -0.0679201 14.2318 -0.0679201 14.5423 0.20376L27.7188 11.7332C28.061 12.0327 28.0957 12.5529 27.7962 12.8952C27.4967 13.2375 26.9764 13.2722 26.6342 12.9727L24.7059 11.2855V23.8824C24.7059 26.1565 22.8623 28 20.5882 28H18.5261C18.6171 27.7424 18.6667 27.4652 18.6667 27.1765Z" fill="#76DE84"/>
</svg>
