<svg width="48" height="49" viewBox="0 0 48 49" fill="none" xmlns="http://www.w3.org/2000/svg">
<g id="Iconly/Bold/Lock">
<g id="Lock">
<path id="Lock_2" fill-rule="evenodd" clip-rule="evenodd" d="M35.0454 14.8471V17.9142C38.4901 18.9896 41 22.1083 41 25.8334V35.7085C41 40.32 37.1773 44.059 32.4644 44.059H15.5376C10.8227 44.059 7 40.32 7 35.7085V25.8334C7 22.1083 9.51189 18.9896 12.9546 17.9142V14.8471C12.9749 8.88392 17.9133 4.05371 23.9695 4.05371C30.107 4.05371 35.0454 8.88392 35.0454 14.8471ZM24.0102 7.53177C28.1357 7.53177 31.489 10.8115 31.489 14.8466V17.4824H16.5111V14.8069C16.5314 10.7917 19.8847 7.53177 24.0102 7.53177ZM25.7783 32.9679C25.7783 33.9419 24.9857 34.7171 23.9899 34.7171C23.0144 34.7171 22.2218 33.9419 22.2218 32.9679V28.5551C22.2218 27.601 23.0144 26.8258 23.9899 26.8258C24.9857 26.8258 25.7783 27.601 25.7783 28.5551V32.9679Z" fill="#FF7132"/>
</g>
</g>
</svg>
