<svg width="118" height="28" viewBox="0 0 118 28" fill="none" xmlns="http://www.w3.org/2000/svg">
<path d="M17.4043 19.8633C17.4043 22.1836 16.5664 24.0117 14.8906 25.3477C13.2266 26.6836 10.9062 27.3516 7.92969 27.3516C5.1875 27.3516 2.76172 26.8359 0.652344 25.8047V20.7422C2.38672 21.5156 3.85156 22.0605 5.04688 22.377C6.25391 22.6934 7.35547 22.8516 8.35156 22.8516C9.54688 22.8516 10.4609 22.623 11.0938 22.166C11.7383 21.709 12.0605 21.0293 12.0605 20.127C12.0605 19.623 11.9199 19.1777 11.6387 18.791C11.3574 18.3926 10.9414 18.0117 10.3906 17.6484C9.85156 17.2852 8.74414 16.7051 7.06836 15.9082C5.49805 15.1699 4.32031 14.4609 3.53516 13.7812C2.75 13.1016 2.12305 12.3105 1.6543 11.4082C1.18555 10.5059 0.951172 9.45117 0.951172 8.24414C0.951172 5.9707 1.71875 4.18359 3.25391 2.88281C4.80078 1.58203 6.93359 0.931641 9.65234 0.931641C10.9883 0.931641 12.2598 1.08984 13.4668 1.40625C14.6855 1.72266 15.957 2.16797 17.2812 2.74219L15.5234 6.97852C14.1523 6.41602 13.0156 6.02344 12.1133 5.80078C11.2227 5.57812 10.3438 5.4668 9.47656 5.4668C8.44531 5.4668 7.6543 5.70703 7.10352 6.1875C6.55273 6.66797 6.27734 7.29492 6.27734 8.06836C6.27734 8.54883 6.38867 8.9707 6.61133 9.33398C6.83398 9.68555 7.18555 10.0312 7.66602 10.3711C8.1582 10.6992 9.3125 11.2969 11.1289 12.1641C13.5312 13.3125 15.1777 14.4668 16.0684 15.627C16.959 16.7754 17.4043 18.1875 17.4043 19.8633ZM29.7793 10.793C28.6426 10.793 27.752 11.1562 27.1074 11.8828C26.4629 12.5977 26.0938 13.6172 26 14.9414H33.5234C33.5 13.6172 33.1543 12.5977 32.4863 11.8828C31.8184 11.1562 30.916 10.793 29.7793 10.793ZM30.5352 27.3516C27.3711 27.3516 24.8984 26.4785 23.1172 24.7324C21.3359 22.9863 20.4453 20.5137 20.4453 17.3145C20.4453 14.0215 21.2656 11.4785 22.9062 9.68555C24.5586 7.88086 26.8379 6.97852 29.7441 6.97852C32.5215 6.97852 34.6836 7.76953 36.2305 9.35156C37.7773 10.9336 38.5508 13.1191 38.5508 15.9082V18.5098H25.877C25.9355 20.0332 26.3867 21.2227 27.2305 22.0781C28.0742 22.9336 29.2578 23.3613 30.7812 23.3613C31.9648 23.3613 33.084 23.2383 34.1387 22.9922C35.1934 22.7461 36.2949 22.3535 37.4434 21.8145V25.9629C36.5059 26.4316 35.5039 26.7773 34.4375 27C33.3711 27.2344 32.0703 27.3516 30.5352 27.3516ZM50.8906 27.3516C44.7734 27.3516 41.7148 23.9941 41.7148 17.2793C41.7148 13.9395 42.5469 11.3906 44.2109 9.63281C45.875 7.86328 48.2598 6.97852 51.3652 6.97852C53.6387 6.97852 55.6777 7.42383 57.4824 8.31445L55.9004 12.4629C55.0566 12.123 54.2715 11.8477 53.5449 11.6367C52.8184 11.4141 52.0918 11.3027 51.3652 11.3027C48.5762 11.3027 47.1816 13.2832 47.1816 17.2441C47.1816 21.0879 48.5762 23.0098 51.3652 23.0098C52.3965 23.0098 53.3516 22.875 54.2305 22.6055C55.1094 22.3242 55.9883 21.8906 56.8672 21.3047V25.8926C56 26.4434 55.1211 26.8242 54.2305 27.0352C53.3516 27.2461 52.2383 27.3516 50.8906 27.3516ZM75.3594 27L74.6387 24.4863H74.3574C73.7832 25.4004 72.9688 26.1094 71.9141 26.6133C70.8594 27.1055 69.6582 27.3516 68.3105 27.3516C66.002 27.3516 64.2617 26.7363 63.0898 25.5059C61.918 24.2637 61.332 22.4824 61.332 20.1621V7.34766H66.6934V18.8262C66.6934 20.2441 66.9453 21.3105 67.4492 22.0254C67.9531 22.7285 68.7559 23.0801 69.8574 23.0801C71.3574 23.0801 72.4414 22.582 73.1094 21.5859C73.7773 20.5781 74.1113 18.9141 74.1113 16.5938V7.34766H79.4727V27H75.3594ZM96.0664 6.97852C96.793 6.97852 97.3965 7.03125 97.877 7.13672L97.4727 12.1641C97.0391 12.0469 96.5117 11.9883 95.8906 11.9883C94.1797 11.9883 92.8438 12.4277 91.8828 13.3066C90.9336 14.1855 90.459 15.416 90.459 16.998V27H85.0977V7.34766H89.1582L89.9492 10.6523H90.2129C90.8223 9.55078 91.6426 8.66602 92.6738 7.99805C93.7168 7.31836 94.8477 6.97852 96.0664 6.97852Z" fill="#444444"/>
<path d="M113.926 27L112.889 24.3281H112.748C111.846 25.4648 110.914 26.2559 109.953 26.7012C109.004 27.1348 107.762 27.3516 106.227 27.3516C104.34 27.3516 102.852 26.8125 101.762 25.7344C100.684 24.6562 100.145 23.1211 100.145 21.1289C100.145 19.043 100.871 17.5078 102.324 16.5234C103.789 15.5273 105.992 14.9766 108.934 14.8711L112.344 14.7656V13.9043C112.344 11.9121 111.324 10.916 109.285 10.916C107.715 10.916 105.869 11.3906 103.748 12.3398L101.973 8.71875C104.234 7.53516 106.742 6.94336 109.496 6.94336C112.133 6.94336 114.154 7.51758 115.561 8.66602C116.967 9.81445 117.67 11.5605 117.67 13.9043V27H113.926ZM112.344 17.8945L110.27 17.9648C108.711 18.0117 107.551 18.293 106.789 18.8086C106.027 19.3242 105.646 20.1094 105.646 21.1641C105.646 22.6758 106.514 23.4316 108.248 23.4316C109.49 23.4316 110.48 23.0742 111.219 22.3594C111.969 21.6445 112.344 20.6953 112.344 19.5117V17.8945Z" fill="#FF7132"/>
</svg>
